<?xml version="1.0" encoding="utf-8"?>
<!-- Generator: Adobe Illustrator 17.0.0, SVG Export Plug-In . SVG Version: 6.00 Build 0)  -->
<!DOCTYPE svg PUBLIC "-//W3C//DTD SVG 1.1//EN" "http://www.w3.org/Graphics/SVG/1.1/DTD/svg11.dtd">
<svg version="1.1" id="Layer_1" xmlns="http://www.w3.org/2000/svg" xmlns:xlink="http://www.w3.org/1999/xlink" x="0px" y="0px"
	 width="340.333px" height="80px" viewBox="0 0 340.333 80" enable-background="new 0 0 340.333 80" xml:space="preserve">
<path fill="#FFFFFF" d="M40.066,4.265C20.772,4.265,5.132,19.906,5.132,39.2s15.64,34.934,34.934,34.934S75.002,58.495,75.002,39.2
	S59.36,4.265,40.066,4.265 M40.018,66.78c-15.232,0-27.58-12.347-27.58-27.58s12.347-27.581,27.58-27.581s27.58,12.349,27.58,27.581
	S55.25,66.78,40.018,66.78"/>
<path fill="#FFFFFF" d="M40.018,52.19c-7.174,0-12.991-5.815-12.991-12.991c0-7.174,5.817-12.99,12.991-12.99
	c3.588,0,6.835,1.454,9.186,3.804l5.158-5.156c-3.671-3.671-8.742-5.943-14.344-5.943c-11.202,0-20.285,9.082-20.285,20.285
	c0,11.204,9.082,20.286,20.285,20.286c5.601,0,10.672-2.271,14.344-5.943l-5.158-5.158C46.853,50.736,43.606,52.19,40.018,52.19"/>
<g enable-background="new    ">
	<path fill="#FFFFFF" d="M105.161,50.392c-2.627,2.556-6.155,3.959-9.754,3.959c-3.132,0-6.263-1.115-8.747-3.096
		c-3.24-2.591-5.003-6.263-5.003-10.402c0-3.672,1.404-6.983,4.032-9.539c2.591-2.52,6.119-3.959,9.719-3.959
		s7.163,1.439,9.754,3.959c2.628,2.556,3.996,5.903,3.996,9.539C109.157,44.524,107.753,47.872,105.161,50.392z M102.138,40.853
		c0-4.176-2.808-7.559-6.731-7.559c-3.959,0-6.731,3.348-6.731,7.559c0,4.247,2.628,7.56,6.731,7.56
		C99.402,48.412,102.138,45.064,102.138,40.853z"/>
	<path fill="#FFFFFF" d="M113.552,27.931h6.767l9.719,13.246c0.252,0.324,1.08,1.836,2.34,4.535
		c-0.252-2.016-0.396-3.707-0.396-5.075V27.931h6.731v25.736h-6.731l-9.719-13.282c-0.252-0.324-1.08-1.8-2.34-4.5
		c0.252,2.017,0.396,3.708,0.396,5.076v12.706h-6.767V27.931z"/>
	<path fill="#FFFFFF" d="M144.224,27.931h7.019v19.725h8.711v6.012h-15.73V27.931z"/>
	<path fill="#FFFFFF" d="M163.555,27.931h7.091v25.736h-7.091V27.931z"/>
	<path fill="#FFFFFF" d="M176.299,27.931h6.768l9.719,13.246c0.252,0.324,1.079,1.836,2.34,4.535
		c-0.253-2.016-0.396-3.707-0.396-5.075V27.931h6.731v25.736h-6.731l-9.719-13.282c-0.252-0.324-1.08-1.8-2.34-4.5
		c0.252,2.017,0.396,3.708,0.396,5.076v12.706h-6.768V27.931z"/>
	<path fill="#FFFFFF" d="M206.971,27.931h15.766v5.65h-8.927v4.464h8.423v5.508h-8.423v4.354h8.927v5.76h-15.766V27.931z"/>
	<path fill="#FFFFFF" d="M257.295,36.605c-1.871-2.088-3.671-3.096-5.939-3.096c-4.067,0-6.767,3.096-6.767,7.451
		c0,3.959,2.663,7.163,6.767,7.163c2.269,0,4.068-1.008,5.939-3.096v7.667c-2.231,1.08-4.355,1.619-6.659,1.619
		c-7.595,0-13.066-5.723-13.066-13.498c0-7.774,5.472-13.498,13.066-13.498c2.304,0,4.428,0.54,6.659,1.62V36.605z"/>
	<path fill="#FFFFFF" d="M261.258,27.931h7.774c3.563,0,6.3,0.035,8.495,1.728c1.872,1.439,2.88,3.636,2.88,6.299
		c0,3.996-2.016,6.552-5.76,7.343l7.02,10.367h-7.919l-5.903-10.079v10.079h-6.587V27.931z M269.141,40.097
		c2.951,0,4.355-0.936,4.355-3.203c0-2.7-1.332-3.564-4.248-3.564h-1.403v6.768H269.141z"/>
	<path fill="#FFFFFF" d="M284.333,27.931h15.766v5.65h-8.927v4.464h8.423v5.508h-8.423v4.354h8.927v5.76h-15.766V27.931z"/>
	<path fill="#FFFFFF" d="M325.514,40.169c0.612,2.304,0.792,3.6,0.828,3.779c0.323-1.62,0.575-2.88,0.792-3.779l3.023-12.238h7.091
		l-7.271,25.736h-6.515l-3.168-10.979c-0.18-0.648-0.468-1.8-0.863-3.456c-0.324,1.332-0.576,2.484-0.864,3.456l-3.132,10.979
		h-6.515l-7.271-25.736h7.091l2.952,12.31c0.324,1.296,0.576,2.592,0.792,3.852c0.252-1.331,0.576-2.627,0.899-3.852l3.24-12.31
		h5.651L325.514,40.169z"/>
</g>
</svg>
