<?xml version="1.0" encoding="utf-8"?>
<!-- Generator: Adobe Illustrator 17.0.0, SVG Export Plug-In . SVG Version: 6.00 Build 0)  -->
<!DOCTYPE svg PUBLIC "-//W3C//DTD SVG 1.1//EN" "http://www.w3.org/Graphics/SVG/1.1/DTD/svg11.dtd">
<svg version="1.1" id="Layer_1" xmlns="http://www.w3.org/2000/svg" xmlns:xlink="http://www.w3.org/1999/xlink" x="0px" y="0px"
	 width="340.333px" height="80px" viewBox="0 0 340.333 80" enable-background="new 0 0 340.333 80" xml:space="preserve">
<g enable-background="new    ">
	<path fill="#231F20" d="M105.345,40.541c0,1.824-0.312,3.474-0.936,4.95c-0.625,1.476-1.482,2.724-2.574,3.743
		c-1.092,1.021-2.376,1.807-3.852,2.358s-3.054,0.828-4.734,0.828c-1.68,0-3.252-0.246-4.716-0.738
		c-1.464-0.491-2.736-1.224-3.816-2.195c-1.08-0.973-1.926-2.19-2.538-3.654c-0.612-1.464-0.918-3.18-0.918-5.148
		c0-1.848,0.312-3.498,0.936-4.951c0.624-1.451,1.482-2.693,2.574-3.726c1.092-1.031,2.376-1.818,3.852-2.358
		c1.476-0.539,3.054-0.81,4.734-0.81c1.68,0,3.252,0.24,4.716,0.72c1.464,0.48,2.736,1.206,3.816,2.179
		c1.08,0.972,1.926,2.19,2.538,3.653C105.039,36.857,105.345,38.573,105.345,40.541z M98.216,40.686c0-1.859-0.42-3.374-1.26-4.545
		c-0.84-1.17-2.076-1.756-3.708-1.756c-1.656,0-2.88,0.574-3.672,1.721c-0.792,1.146-1.188,2.625-1.188,4.435
		c0,0.941,0.108,1.799,0.324,2.571c0.216,0.772,0.528,1.437,0.936,1.991c0.408,0.556,0.924,0.989,1.548,1.304
		c0.624,0.313,1.344,0.471,2.16,0.471c1.632,0,2.85-0.579,3.654-1.738C97.814,43.98,98.216,42.495,98.216,40.686z"/>
	<path fill="#231F20" d="M124.316,29.38h6.588v22.716h-7.524l-8.1-12.96v12.745h-6.588v-22.5h7.632l7.992,12.781V29.38z"/>
	<path fill="#231F20" d="M135.08,51.881v-22.5h7.092v16.705h8.676v5.796H135.08z"/>
	<path fill="#231F20" d="M154.304,51.881v-22.5h7.091v22.5H154.304z"/>
	<path fill="#231F20" d="M181.231,29.38h6.588v22.716h-7.523l-8.101-12.96v12.745h-6.588v-22.5h7.632l7.992,12.781V29.38z"/>
	<path fill="#231F20" d="M191.995,51.881v-22.5h17.532v5.544h-10.656v2.88h8.424v5.544h-8.424v2.988h10.656v5.544H191.995z"/>
	<path fill="#FFFFFF" d="M229.831,36.292c-0.769-0.456-1.633-0.822-2.592-1.098c-0.96-0.276-1.896-0.414-2.809-0.414
		c-1.728,0-3.084,0.516-4.067,1.548c-0.984,1.032-1.477,2.448-1.477,4.249c0,1.824,0.469,3.264,1.404,4.319
		c0.936,1.057,2.315,1.584,4.14,1.584c1.057,0,2.053-0.144,2.988-0.432c0.937-0.288,1.848-0.695,2.736-1.224l1.548,6.084
		c-0.432,0.216-0.948,0.42-1.548,0.611c-0.601,0.192-1.242,0.354-1.926,0.486c-0.685,0.132-1.381,0.234-2.089,0.306
		c-0.708,0.072-1.398,0.108-2.069,0.108c-1.872,0-3.57-0.246-5.095-0.738c-1.523-0.491-2.82-1.224-3.888-2.195
		c-1.068-0.973-1.89-2.19-2.466-3.654s-0.864-3.168-0.864-5.112c0-1.824,0.288-3.468,0.864-4.932s1.404-2.712,2.484-3.744
		c1.08-1.031,2.399-1.823,3.96-2.376c1.56-0.552,3.323-0.828,5.292-0.828c1.439,0,2.795,0.144,4.067,0.432s2.448,0.673,3.528,1.152
		L229.831,36.292z"/>
	<path fill="#FFFFFF" d="M241.961,51.881h-7.092v-22.5h10.188c3.144,0,5.525,0.666,7.146,1.998s2.43,3.126,2.43,5.382
		c0,1.44-0.354,2.73-1.062,3.871c-0.708,1.141-1.818,2.011-3.33,2.61l5.58,8.64h-7.848l-4.032-6.84l-1.98,0.18V51.881z
		 M244.266,40.144c1.08-0.119,1.854-0.401,2.321-0.846c0.469-0.443,0.702-1.122,0.702-2.034c0-0.84-0.265-1.464-0.792-1.872
		c-0.528-0.407-1.439-0.611-2.735-0.611h-1.944v5.399L244.266,40.144z"/>
	<path fill="#FFFFFF" d="M258.414,51.881v-22.5h17.532v5.544H265.29v2.88h8.424v5.544h-8.424v2.988h10.656v5.544H258.414z"/>
	<path fill="#FFFFFF" d="M291.389,51.881h-7.451l-5.797-22.5h7.633l2.052,14.689l3.42-14.689h8.1l3.42,14.689l2.089-14.689h7.38
		l-5.832,22.5h-7.488l-3.744-14.653L291.389,51.881z"/>
</g>
<g>
	<path fill="#231F20" d="M52.206,54.29c-3.24,2.427-7.259,3.866-11.603,3.866v3.923l-0.061-3.923
		c-5.185-0.016-10.053-2.05-13.708-5.727c-3.655-3.677-5.659-8.558-5.644-13.742c0.032-10.671,8.739-19.352,19.47-19.352
		c4.319,0.013,8.415,1.431,11.776,4.028l6.025-5.199c-4.934-4.295-11.17-6.655-17.778-6.675h-0.084
		c-14.984,0-27.21,12.19-27.256,27.175c-0.022,7.281,2.792,14.134,7.925,19.298c5.133,5.164,11.969,8.02,19.25,8.042h0.084
		c6.709,0,12.861-2.449,17.619-6.494L52.206,54.29z"/>
	<path fill="#FFFFFF" d="M60.011,38.805c-0.011,3.498-0.958,6.78-2.597,9.615l6,5.205c2.791-4.261,4.428-9.342,4.444-14.797
		c0.016-5.299-1.477-10.368-4.266-14.728l-6.029,5.202C59.168,32.175,60.022,35.424,60.011,38.805z"/>
</g>
</svg>
