<?xml version="1.0" encoding="utf-8"?>
<!-- Generator: Adobe Illustrator 17.0.0, SVG Export Plug-In . SVG Version: 6.00 Build 0)  -->
<!DOCTYPE svg PUBLIC "-//W3C//DTD SVG 1.1//EN" "http://www.w3.org/Graphics/SVG/1.1/DTD/svg11.dtd">
<svg version="1.1" id="Layer_1" xmlns="http://www.w3.org/2000/svg" xmlns:xlink="http://www.w3.org/1999/xlink" x="0px" y="0px"
	 width="340.333px" height="80px" viewBox="0 0 340.333 80" enable-background="new 0 0 340.333 80" xml:space="preserve">
<path fill="#231F20" d="M40.066,4.265C20.772,4.265,5.132,19.906,5.132,39.2s15.64,34.934,34.934,34.934S75.002,58.495,75.002,39.2
	S59.36,4.265,40.066,4.265 M40.018,66.78c-15.232,0-27.58-12.347-27.58-27.58s12.347-27.581,27.58-27.581s27.58,12.349,27.58,27.581
	S55.25,66.78,40.018,66.78"/>
<path fill="#231F20" d="M40.018,52.19c-7.174,0-12.991-5.815-12.991-12.991c0-7.174,5.817-12.99,12.991-12.99
	c3.588,0,6.835,1.454,9.186,3.804l5.158-5.156c-3.671-3.671-8.742-5.943-14.344-5.943c-11.202,0-20.285,9.082-20.285,20.285
	c0,11.204,9.082,20.286,20.285,20.286c5.601,0,10.672-2.271,14.344-5.943l-5.158-5.158C46.853,50.736,43.606,52.19,40.018,52.19"/>
<text transform="matrix(1 0 0 1 80.0006 53.667)" fill="#231F20" font-family="'FuturaBT-Bold'" font-size="36">ONLINE CREW</text>
</svg>
